<svg xmlns="http://www.w3.org/2000/svg" width="1000" height="650" viewBox="0 0 1000 650">
  <defs>
    <style>
      @import url('https://fonts.googleapis.com/css2?family=JetBrains+Mono:wght@400;700&amp;display=swap');
      text { font-family: 'JetBrains Mono', 'Cascadia Code', 'Fira Code', 'Consolas', monospace; }
    </style>
  </defs>

  <!-- Terminal window -->
  <rect width="1000" height="650" rx="8" fill="#1a1b26"/>

  <!-- Title bar -->
  <rect width="1000" height="36" rx="8" fill="#24283b"/>
  <rect y="28" width="1000" height="8" fill="#24283b"/>
  <circle cx="20" cy="18" r="6" fill="#f7768e"/>
  <circle cx="40" cy="18" r="6" fill="#e0af68"/>
  <circle cx="60" cy="18" r="6" fill="#9ece6a"/>
  <text x="500" y="22" fill="#a9b1d6" font-size="12" text-anchor="middle" font-weight="bold">iec62443-audit -- TUI</text>

  <!-- Top header bar -->
  <rect x="0" y="36" width="1000" height="28" fill="#7aa2f7"/>
  <text x="20" y="55" fill="#1a1b26" font-size="12" font-weight="bold">IEC 62443 Audit</text>
  <text x="500" y="55" fill="#1a1b26" font-size="11" text-anchor="middle">Gateway-Pro v2.1 -- IEC 62443-3-3 -- Target: SL-3</text>
  <text x="940" y="55" fill="#1a1b26" font-size="11">14:32:07</text>

  <!-- LEFT SIDEBAR: FR List -->
  <rect x="8" y="72" width="210" height="500" rx="4" fill="none" stroke="#7aa2f7" stroke-width="1.5"/>
  <text x="18" y="92" fill="#7aa2f7" font-size="11" font-weight="bold">Foundational Requirements</text>
  <line x1="14" y1="98" x2="212" y2="98" stroke="#3b4261" stroke-width="0.5"/>

  <!-- FR1 - selected, partial (yellow) -->
  <rect x="12" y="104" width="202" height="24" rx="2" fill="#292e42"/>
  <text x="18" y="120" fill="#7aa2f7" font-size="11" font-weight="bold">&#x25B6;</text>
  <text x="34" y="120" fill="#e0af68" font-size="11" font-weight="bold">FR1</text>
  <text x="64" y="120" fill="#c0caf5" font-size="10">Ident &amp; Auth</text>
  <text x="162" y="120" fill="#e0af68" font-size="10" font-weight="bold">71%</text>
  <text x="192" y="120" fill="#e0af68" font-size="10">!!</text>

  <!-- FR2 - pass (green) -->
  <text x="34" y="150" fill="#9ece6a" font-size="11" font-weight="bold">FR2</text>
  <text x="64" y="150" fill="#a9b1d6" font-size="10">Use Control</text>
  <text x="162" y="150" fill="#9ece6a" font-size="10" font-weight="bold">85%</text>
  <text x="192" y="150" fill="#9ece6a" font-size="10">OK</text>

  <!-- FR3 - pass (green) -->
  <text x="34" y="176" fill="#9ece6a" font-size="11" font-weight="bold">FR3</text>
  <text x="64" y="176" fill="#a9b1d6" font-size="10">System Integrity</text>
  <text x="162" y="176" fill="#9ece6a" font-size="10" font-weight="bold">92%</text>
  <text x="192" y="176" fill="#9ece6a" font-size="10">OK</text>

  <!-- FR4 - fail (red) -->
  <text x="34" y="202" fill="#f7768e" font-size="11" font-weight="bold">FR4</text>
  <text x="64" y="202" fill="#a9b1d6" font-size="10">Data Confid.</text>
  <text x="162" y="202" fill="#f7768e" font-size="10" font-weight="bold">67%</text>
  <text x="192" y="202" fill="#f7768e" font-size="10">XX</text>

  <!-- FR5 - pass (green) -->
  <text x="34" y="228" fill="#9ece6a" font-size="11" font-weight="bold">FR5</text>
  <text x="64" y="228" fill="#a9b1d6" font-size="10">Restricted Data</text>
  <text x="158" y="228" fill="#9ece6a" font-size="10" font-weight="bold">100%</text>
  <text x="192" y="228" fill="#9ece6a" font-size="10">OK</text>

  <!-- FR6 - partial (yellow) -->
  <text x="34" y="254" fill="#e0af68" font-size="11" font-weight="bold">FR6</text>
  <text x="64" y="254" fill="#a9b1d6" font-size="10">Timely Response</text>
  <text x="162" y="254" fill="#e0af68" font-size="10" font-weight="bold">75%</text>
  <text x="192" y="254" fill="#e0af68" font-size="10">!!</text>

  <!-- FR7 - pass (green) -->
  <text x="34" y="280" fill="#9ece6a" font-size="11" font-weight="bold">FR7</text>
  <text x="64" y="280" fill="#a9b1d6" font-size="10">Resource Avail.</text>
  <text x="162" y="280" fill="#9ece6a" font-size="10" font-weight="bold">83%</text>
  <text x="192" y="280" fill="#9ece6a" font-size="10">OK</text>

  <!-- Mini compliance bars in sidebar -->
  <line x1="14" y1="296" x2="212" y2="296" stroke="#3b4261" stroke-width="0.5"/>
  <text x="18" y="316" fill="#565f89" font-size="10">Overall Progress</text>
  <rect x="18" y="324" width="190" height="8" rx="3" fill="#292e42"/>
  <rect x="18" y="324" width="143" height="8" rx="3" fill="#9ece6a"/>
  <text x="18" y="348" fill="#565f89" font-size="10">38 / 51 SRs assessed</text>

  <!-- Spider chart mini -->
  <line x1="14" y1="362" x2="212" y2="362" stroke="#3b4261" stroke-width="0.5"/>
  <text x="18" y="380" fill="#565f89" font-size="10">SL per FR (target: |)</text>
  <!-- mini bars -->
  <text x="18" y="398" fill="#565f89" font-size="9">IAC</text>
  <rect x="48" y="390" width="84" height="6" rx="2" fill="#e0af68"/>
  <rect x="132" y="388" width="1" height="10" fill="#c0caf5"/>
  <text x="18" y="414" fill="#565f89" font-size="9">UC</text>
  <rect x="48" y="406" width="108" height="6" rx="2" fill="#9ece6a"/>
  <rect x="132" y="404" width="1" height="10" fill="#c0caf5"/>
  <text x="18" y="430" fill="#565f89" font-size="9">SI</text>
  <rect x="48" y="422" width="118" height="6" rx="2" fill="#9ece6a"/>
  <rect x="132" y="420" width="1" height="10" fill="#c0caf5"/>
  <text x="18" y="446" fill="#565f89" font-size="9">DC</text>
  <rect x="48" y="438" width="72" height="6" rx="2" fill="#f7768e"/>
  <rect x="132" y="436" width="1" height="10" fill="#c0caf5"/>
  <text x="18" y="462" fill="#565f89" font-size="9">RDF</text>
  <rect x="48" y="454" width="136" height="6" rx="2" fill="#9ece6a"/>
  <rect x="132" y="452" width="1" height="10" fill="#c0caf5"/>
  <text x="18" y="478" fill="#565f89" font-size="9">TRE</text>
  <rect x="48" y="470" width="96" height="6" rx="2" fill="#e0af68"/>
  <rect x="132" y="468" width="1" height="10" fill="#c0caf5"/>
  <text x="18" y="494" fill="#565f89" font-size="9">RA</text>
  <rect x="48" y="486" width="104" height="6" rx="2" fill="#9ece6a"/>
  <rect x="132" y="484" width="1" height="10" fill="#c0caf5"/>

  <!-- CENTER PANEL: SR Details -->
  <rect x="226" y="72" width="520" height="500" rx="4" fill="none" stroke="#bb9af7" stroke-width="1.5"/>
  <text x="236" y="92" fill="#bb9af7" font-size="11" font-weight="bold">System Requirement</text>
  <line x1="232" y1="98" x2="740" y2="98" stroke="#3b4261" stroke-width="0.5"/>

  <!-- SR ID and name -->
  <text x="236" y="122" fill="#c0caf5" font-size="14" font-weight="bold">SR 1.1: Human user identification and authentication</text>

  <!-- FR context -->
  <text x="236" y="146" fill="#565f89" font-size="11">FR1: Identification and Authentication Control (IAC)</text>

  <!-- Description box -->
  <rect x="236" y="158" width="500" height="70" rx="4" fill="#292e42"/>
  <text x="246" y="178" fill="#a9b1d6" font-size="10">The control system shall provide the capability to identify</text>
  <text x="246" y="194" fill="#a9b1d6" font-size="10">and authenticate all human users. This capability shall</text>
  <text x="246" y="210" fill="#a9b1d6" font-size="10">enforce such identification and authentication on all</text>
  <text x="246" y="226" fill="#a9b1d6" font-size="10">interfaces providing human user access to the system.</text>

  <!-- SL Levels explanation -->
  <text x="236" y="256" fill="#7aa2f7" font-size="11" font-weight="bold">Security Level Requirements</text>
  <line x1="236" y1="262" x2="730" y2="262" stroke="#3b4261" stroke-width="0.5"/>

  <!-- SL level boxes -->
  <rect x="236" y="272" width="240" height="30" rx="3" fill="#292e42"/>
  <text x="246" y="286" fill="#9ece6a" font-size="10" font-weight="bold">SL-1</text>
  <text x="280" y="286" fill="#a9b1d6" font-size="10">Unique identification of users</text>
  <text x="246" y="298" fill="#9ece6a" font-size="9">Applicable from SL-1</text>

  <rect x="236" y="308" width="240" height="30" rx="3" fill="#292e42"/>
  <text x="246" y="322" fill="#9ece6a" font-size="10" font-weight="bold">SL-2</text>
  <text x="280" y="322" fill="#a9b1d6" font-size="10">+ Multi-factor for untrusted</text>
  <text x="246" y="334" fill="#9ece6a" font-size="9">Applicable from SL-2</text>

  <rect x="236" y="344" width="240" height="30" rx="3" fill="#292e42" stroke="#bb9af7" stroke-width="1" stroke-dasharray="3,2"/>
  <text x="246" y="358" fill="#bb9af7" font-size="10" font-weight="bold">SL-3</text>
  <text x="280" y="358" fill="#c0caf5" font-size="10">+ Multi-factor for all users</text>
  <text x="246" y="370" fill="#bb9af7" font-size="9">TARGET -- required for compliance</text>

  <rect x="236" y="380" width="240" height="30" rx="3" fill="#292e42"/>
  <text x="246" y="394" fill="#565f89" font-size="10" font-weight="bold">SL-4</text>
  <text x="280" y="394" fill="#565f89" font-size="10">+ Hardware auth tokens</text>
  <text x="246" y="406" fill="#565f89" font-size="9">Applicable from SL-4</text>

  <!-- Right side of center: Current rating input -->
  <rect x="496" y="272" width="238" height="140" rx="4" fill="#292e42" stroke="#3b4261" stroke-width="1"/>
  <text x="510" y="294" fill="#7aa2f7" font-size="11" font-weight="bold">Current Rating</text>

  <text x="510" y="320" fill="#a9b1d6" font-size="10">SL-Achieved (0-4):</text>
  <rect x="510" y="328" width="60" height="24" rx="3" fill="#1a1b26" stroke="#7aa2f7" stroke-width="1"/>
  <text x="536" y="345" fill="#c0caf5" font-size="13" font-weight="bold" text-anchor="middle">3</text>
  <rect x="578" y="328" width="8" height="24" rx="1" fill="#7aa2f7" opacity="0.6"/>

  <text x="510" y="372" fill="#a9b1d6" font-size="10">Notes:</text>
  <rect x="510" y="378" width="210" height="22" rx="3" fill="#1a1b26" stroke="#3b4261" stroke-width="1"/>
  <text x="518" y="393" fill="#565f89" font-size="9">MFA implemented for all users</text>

  <!-- Confirm button -->
  <rect x="236" y="430" width="500" height="28" rx="4" fill="#7aa2f7"/>
  <text x="486" y="449" fill="#1a1b26" font-size="12" font-weight="bold" text-anchor="middle">Confirm Rating  [Enter]</text>

  <!-- Evidence section -->
  <text x="236" y="486" fill="#565f89" font-size="10">Previous ratings in this FR:</text>
  <text x="236" y="504" fill="#9ece6a" font-size="10">SR 1.1  SL-3  OK   Human user identification</text>
  <text x="236" y="520" fill="#f7768e" font-size="10">SR 1.2  SL-1  XX   Software identification</text>
  <text x="236" y="536" fill="#9ece6a" font-size="10">SR 1.3  SL-3  OK   Account management</text>
  <text x="236" y="552" fill="#e0af68" font-size="10">SR 1.4  SL-2  !!   Identifier management</text>
  <text x="236" y="564" fill="#565f89" font-size="9">... 3 more SRs remaining in FR1</text>

  <!-- RIGHT PANEL: Score -->
  <rect x="754" y="72" width="238" height="500" rx="4" fill="none" stroke="#9ece6a" stroke-width="1.5"/>
  <text x="764" y="92" fill="#9ece6a" font-size="11" font-weight="bold">Assessment Score</text>
  <line x1="760" y1="98" x2="986" y2="98" stroke="#3b4261" stroke-width="0.5"/>

  <!-- Overall SL big number -->
  <text x="873" y="148" fill="#e0af68" font-size="48" font-weight="bold" text-anchor="middle">SL-2</text>
  <text x="873" y="168" fill="#565f89" font-size="10" text-anchor="middle">Overall Achieved</text>

  <!-- Target -->
  <text x="873" y="198" fill="#bb9af7" font-size="14" text-anchor="middle">Target: SL-3</text>

  <line x1="770" y1="212" x2="980" y2="212" stroke="#3b4261" stroke-width="0.5"/>

  <!-- Compliance -->
  <text x="770" y="236" fill="#a9b1d6" font-size="11">Compliance</text>
  <text x="960" y="236" fill="#9ece6a" font-size="14" font-weight="bold" text-anchor="end">82%</text>
  <rect x="770" y="244" width="210" height="8" rx="3" fill="#292e42"/>
  <rect x="770" y="244" width="172" height="8" rx="3" fill="#9ece6a"/>

  <!-- Progress -->
  <text x="770" y="278" fill="#a9b1d6" font-size="11">Progress</text>
  <text x="960" y="278" fill="#7aa2f7" font-size="14" font-weight="bold" text-anchor="end">38/51</text>
  <text x="960" y="292" fill="#565f89" font-size="10" text-anchor="end">SRs assessed</text>
  <rect x="770" y="298" width="210" height="8" rx="3" fill="#292e42"/>
  <rect x="770" y="298" width="156" height="8" rx="3" fill="#7aa2f7"/>

  <!-- Gaps -->
  <text x="770" y="330" fill="#a9b1d6" font-size="11">Gaps Found</text>
  <text x="960" y="330" fill="#f7768e" font-size="14" font-weight="bold" text-anchor="end">9</text>

  <line x1="770" y1="344" x2="980" y2="344" stroke="#3b4261" stroke-width="0.5"/>

  <!-- Gap breakdown -->
  <text x="770" y="366" fill="#565f89" font-size="10">Gap Breakdown</text>
  <text x="770" y="386" fill="#f7768e" font-size="10">Critical (gap 2+):</text>
  <text x="920" y="386" fill="#f7768e" font-size="10" font-weight="bold" text-anchor="end">3</text>
  <text x="770" y="404" fill="#e0af68" font-size="10">High (gap 1):</text>
  <text x="920" y="404" fill="#e0af68" font-size="10" font-weight="bold" text-anchor="end">6</text>

  <line x1="770" y1="418" x2="980" y2="418" stroke="#3b4261" stroke-width="0.5"/>

  <!-- FR Status summary -->
  <text x="770" y="440" fill="#565f89" font-size="10">FR Status</text>
  <text x="770" y="458" fill="#9ece6a" font-size="10">Pass (SL met):</text>
  <text x="920" y="458" fill="#9ece6a" font-size="10" font-weight="bold" text-anchor="end">4</text>
  <text x="770" y="474" fill="#e0af68" font-size="10">Partial:</text>
  <text x="920" y="474" fill="#e0af68" font-size="10" font-weight="bold" text-anchor="end">2</text>
  <text x="770" y="490" fill="#f7768e" font-size="10">Fail:</text>
  <text x="920" y="490" fill="#f7768e" font-size="10" font-weight="bold" text-anchor="end">1</text>

  <line x1="770" y1="504" x2="980" y2="504" stroke="#3b4261" stroke-width="0.5"/>

  <!-- Last saved -->
  <text x="770" y="524" fill="#565f89" font-size="9">Last saved: 14:28:52</text>
  <text x="770" y="540" fill="#565f89" font-size="9">File: gateway-pro-v2.1.json</text>

  <!-- BOTTOM: Navigation bar -->
  <rect x="0" y="580" width="1000" height="34" fill="#24283b"/>
  <rect x="0" y="614" width="1000" height="36" rx="0" fill="#292e42"/>

  <!-- Navigation hints -->
  <text x="20" y="600" fill="#7aa2f7" font-size="10" font-weight="bold">Enter</text>
  <text x="62" y="600" fill="#a9b1d6" font-size="10">:confirm</text>
  <text x="140" y="600" fill="#7aa2f7" font-size="10" font-weight="bold">n</text>
  <text x="152" y="600" fill="#a9b1d6" font-size="10">:next</text>
  <text x="210" y="600" fill="#7aa2f7" font-size="10" font-weight="bold">p</text>
  <text x="222" y="600" fill="#a9b1d6" font-size="10">:prev</text>
  <text x="280" y="600" fill="#7aa2f7" font-size="10" font-weight="bold">Tab</text>
  <text x="312" y="600" fill="#a9b1d6" font-size="10">:dashboard</text>
  <text x="410" y="600" fill="#7aa2f7" font-size="10" font-weight="bold">Ctrl+S</text>
  <text x="462" y="600" fill="#a9b1d6" font-size="10">:save</text>
  <text x="520" y="600" fill="#7aa2f7" font-size="10" font-weight="bold">Ctrl+E</text>
  <text x="572" y="600" fill="#a9b1d6" font-size="10">:export</text>
  <text x="640" y="600" fill="#7aa2f7" font-size="10" font-weight="bold">q</text>
  <text x="652" y="600" fill="#a9b1d6" font-size="10">:quit</text>

  <!-- Footer bar -->
  <text x="20" y="636" fill="#565f89" font-size="10">iec62443-audit v1.0.0</text>
  <text x="500" y="636" fill="#565f89" font-size="10" text-anchor="middle">Assessment Screen -- FR1: Identification and Authentication Control</text>
  <text x="980" y="636" fill="#565f89" font-size="10" text-anchor="end">SL-2 / SL-3</text>
</svg>
